<svg width="14" height="9" viewBox="0 0 14 9" fill="none" xmlns="http://www.w3.org/2000/svg">
<path d="M0.152344 1.29102L0.774414 0.65625C0.816732 0.613932 0.863281 0.580078 0.914062 0.554688C0.973307 0.520833 1.02409 0.503906 1.06641 0.503906C1.11719 0.503906 1.1722 0.520833 1.23145 0.554688C1.29069 0.580078 1.33724 0.613932 1.37109 0.65625L6.5 5.77246L11.6162 0.65625C11.6585 0.613932 11.7051 0.580078 11.7559 0.554688C11.8066 0.520833 11.8574 0.503906 11.9082 0.503906C11.959 0.503906 12.0098 0.516602 12.0605 0.541992C12.1198 0.567383 12.1663 0.605469 12.2002 0.65625L12.873 1.31641C12.9154 1.35872 12.9492 1.40951 12.9746 1.46875C13 1.51953 13.0127 1.57031 13.0127 1.62109C13.0127 1.66341 13 1.71419 12.9746 1.77344C12.9577 1.83268 12.9238 1.87923 12.873 1.91309L6.79199 7.96875C6.74967 8.01107 6.70312 8.04915 6.65234 8.08301C6.60156 8.1084 6.55078 8.12109 6.5 8.12109C6.44922 8.12109 6.39421 8.1084 6.33496 8.08301C6.28418 8.05762 6.24186 8.01953 6.20801 7.96875L0.152344 1.91309C0.101562 1.8623 0.0634766 1.81152 0.0380859 1.76074C0.0126953 1.70996 0 1.66341 0 1.62109C0 1.56185 0.0126953 1.50684 0.0380859 1.45605C0.0634766 1.39681 0.101562 1.3418 0.152344 1.29102Z" fill="#393939"/>
</svg>