<svg id="Layer_1" data-name="Layer 1" xmlns="http://www.w3.org/2000/svg" width="389.5" height="512" viewBox="0 0 389.5 512">
  <defs>
    <style>
      .cls-1 {
        fill: #fff;
      }
    </style>
  </defs>
  <title>disability</title>
  <path class="cls-1" d="M449.8,470.5,416.4,325.8A33.3,33.3,0,0,0,384,300.5H319.1a139.3,139.3,0,0,0-35.3-38.9V166.9c0-25.2-27-40.6-48.3-29.9l-66.8,33.4a33.1,33.1,0,0,0-18.3,29.9V243l-.6.2A138.3,138.3,0,0,0,61.2,372.8c0,76.7,62.4,139.1,139.1,139.1s142.1-64,138.9-144.7h18.7L385,486.7a33.4,33.4,0,1,0,64.8-16.2Zm-249.4,8.1a105.6,105.6,0,0,1-50-198.7v42.9a33.3,33.3,0,1,0,66.7,0V268.1l2.5.7a105.7,105.7,0,0,1-19.2,209.7Z" transform="translate(-61.2 0)"/>
  <path class="cls-1" d="M256,0a50.1,50.1,0,1,0,50.1,50.1A50.1,50.1,0,0,0,256,0Z" transform="translate(-61.2 0)"/>
</svg>
